<?xml version="1.0" encoding="us-ascii" standalone="no"?><svg xmlns="http://www.w3.org/2000/svg" xmlns:xlink="http://www.w3.org/1999/xlink" contentStyleType="text/css" height="219px" preserveAspectRatio="none" style="width:90px;height:219px;background:#FFFFFF;" version="1.1" viewBox="0 0 90 219" width="90px" zoomAndPan="magnify"><defs/><g><!--class Object--><g id="elem_Object"><rect codeLine="1" fill="#F1F1F1" height="64.4883" id="Object" rx="2.5" ry="2.5" style="stroke:#181818;stroke-width:0.5;" width="76" x="7" y="7"/><ellipse cx="22" cy="23" fill="#ADD1B2" rx="11" ry="11" style="stroke:#181818;stroke-width:1.0;"/><path d="M24.4731,29.1431 Q23.8921,29.4419 23.2529,29.5913 Q22.6138,29.7407 21.9082,29.7407 Q19.4014,29.7407 18.0815,28.0889 Q16.7617,26.437 16.7617,23.3159 Q16.7617,20.1865 18.0815,18.5347 Q19.4014,16.8828 21.9082,16.8828 Q22.6138,16.8828 23.2612,17.0322 Q23.9087,17.1816 24.4731,17.4805 L24.4731,20.2031 Q23.8423,19.6221 23.2488,19.3523 Q22.6553,19.0825 22.0244,19.0825 Q20.6797,19.0825 19.9949,20.1492 Q19.3101,21.2158 19.3101,23.3159 Q19.3101,25.4077 19.9949,26.4744 Q20.6797,27.541 22.0244,27.541 Q22.6553,27.541 23.2488,27.2712 Q23.8423,27.0015 24.4731,26.4204 Z " fill="#000000"/><text fill="#000000" font-family="sans-serif" font-size="14" lengthAdjust="spacing" textLength="44" x="36" y="28.291">Object</text><line style="stroke:#181818;stroke-width:0.5;" x1="8" x2="82" y1="39" y2="39"/><text fill="#000000" font-family="sans-serif" font-size="14" lengthAdjust="spacing" textLength="39" x="13" y="56.5352">Name</text><line style="stroke:#181818;stroke-width:0.5;" x1="8" x2="82" y1="63.4883" y2="63.4883"/></g><!--class Point--><g id="elem_Point"><rect codeLine="4" fill="#F1F1F1" height="80.9766" id="Point" rx="2.5" ry="2.5" style="stroke:#181818;stroke-width:0.5;" width="67" x="11.5" y="131.48"/><ellipse cx="26.5" cy="147.48" fill="#ADD1B2" rx="11" ry="11" style="stroke:#181818;stroke-width:1.0;"/><path d="M28.9731,153.6231 Q28.3921,153.9219 27.7529,154.0713 Q27.1138,154.2207 26.4082,154.2207 Q23.9014,154.2207 22.5815,152.5689 Q21.2617,150.917 21.2617,147.7959 Q21.2617,144.6665 22.5815,143.0147 Q23.9014,141.3628 26.4082,141.3628 Q27.1138,141.3628 27.7612,141.5122 Q28.4087,141.6616 28.9731,141.9605 L28.9731,144.6831 Q28.3423,144.1021 27.7488,143.8323 Q27.1553,143.5625 26.5244,143.5625 Q25.1797,143.5625 24.4949,144.6292 Q23.8101,145.6958 23.8101,147.7959 Q23.8101,149.8877 24.4949,150.9544 Q25.1797,152.021 26.5244,152.021 Q27.1553,152.021 27.7488,151.7512 Q28.3423,151.4815 28.9731,150.9004 Z " fill="#000000"/><text fill="#000000" font-family="sans-serif" font-size="14" lengthAdjust="spacing" textLength="35" x="40.5" y="152.771">Point</text><line style="stroke:#181818;stroke-width:0.5;" x1="12.5" x2="77.5" y1="163.48" y2="163.48"/><ellipse cx="22.5" cy="177.2241" fill="none" rx="3" ry="3" style="stroke:#038048;stroke-width:1.0;"/><text fill="#000000" font-family="sans-serif" font-size="14" lengthAdjust="spacing" textLength="9" x="31.5" y="181.0152">x</text><rect fill="none" height="6" style="stroke:#C82930;stroke-width:1.0;" width="6" x="19.5" y="190.7124"/><text fill="#000000" font-family="sans-serif" font-size="14" lengthAdjust="spacing" textLength="7" x="31.5" y="197.5034">y</text><line style="stroke:#181818;stroke-width:0.5;" x1="12.5" x2="77.5" y1="204.4566" y2="204.4566"/></g><!--link Object to Point--><g id="link_Object_Point"><path codeLine="9" d="M45,71.89 C45,89.72 45,112.17 45,131.18 " fill="none" id="Object-Point" style="stroke:#181818;stroke-width:1.0;"/></g><!--SRC=[Iyv9B2vMy4_AIaqkKQZcKW02lyJSLAvQhcImJ41-PXvCGbkX0aphAbG2vRcWcdHr8Oe0]--></g></svg>